Coordinates
version=1
nRows=38
nColumns=38
inDegrees=no

Units are S.I. units (second, meters, Newtons, ...)
If the header above contains a line with 'inDegrees', this indicates whether rotational values are in degrees (yes) or radians (no).

endheader
time	pelvis_tilt	pelvis_list	pelvis_rotation	pelvis_tx	pelvis_ty	pelvis_tz	hip_flexion_r	hip_adduction_r	hip_rotation_r	knee_angle_r	ankle_angle_r	subtalar_angle_r	mtp_angle_r	hip_flexion_l	hip_adduction_l	hip_rotation_l	knee_angle_l	ankle_angle_l	subtalar_angle_l	mtp_angle_l	lumbar_extension	lumbar_bending	lumbar_rotation	arm_flex_r	arm_add_r	arm_rot_r	elbow_flex_r	pro_sup_r	wrist_flex_r	wrist_dev_r	arm_flex_l	arm_add_l	arm_rot_l	elbow_flex_l	pro_sup_l	wrist_flex_l	wrist_dev_l
0	0.613426	1.43865	-2.13114	0.306966	1.62132	1.02869	-0.295367	-0.197081	-0.208513	0.740583	-0.339748	0	0	0.150709	0.0243067	-0.033188	0.274701	-0.172576	0	0	-0.466146	-0.0664093	0.211195	0.161632	-0.500159	1.01471	0.603644	0.586494	0	0	0.18923	-0.286393	0.774083	0.471888	0.739606	0	0
0.01	0.617933	1.437	-2.13447	0.310503	1.60982	1.03028	-0.293496	-0.197039	-0.1845	0.74963	-0.371347	0	0	0.140322	0.0267934	-0.0183895	0.271525	-0.190006	0	0	-0.467479	-0.0685442	0.211354	0.155654	-0.495475	1.00147	0.597011	0.599047	0	0	0.188446	-0.285372	0.775446	0.471211	0.735914	0	0
0.02	0.62859	1.43539	-2.14441	0.313862	1.59814	1.03175	-0.284905	-0.203923	-0.172771	0.771327	-0.409176	0	0	0.135595	0.0280137	-0.0155408	0.283195	-0.19984	0	0	-0.466975	-0.0713725	0.211389	0.149967	-0.490965	0.991335	0.590771	0.607968	0	0	0.186806	-0.285809	0.777591	0.471778	0.734722	0	0
0.03	0.627312	1.4327	-2.14222	0.317258	1.58651	1.03361	-0.275779	-0.210513	-0.162106	0.795068	-0.453402	0	0	0.130408	0.0281736	-0.0194475	0.29995	-0.204133	0	0	-0.468216	-0.0730123	0.211252	0.145083	-0.487434	0.982696	0.585512	0.616228	0	0	0.185573	-0.286188	0.780729	0.472294	0.732916	0	0
0.04	0.623138	1.42992	-2.13611	0.320978	1.57514	1.03563	-0.264681	-0.216942	-0.152281	0.820912	-0.502136	0	0	0.124387	0.02936	-0.0250048	0.316733	-0.203621	0	0	-0.470206	-0.0733516	0.210266	0.140729	-0.485766	0.975075	0.582385	0.623113	0	0	0.184928	-0.286378	0.785285	0.473351	0.730814	0	0
0.05	0.606353	1.42544	-2.11776	0.324728	1.56385	1.03802	-0.255098	-0.221893	-0.141018	0.846094	-0.553304	0	0	0.11188	0.0306665	-0.0351573	0.326858	-0.201882	0	0	-0.474552	-0.0725923	0.209801	0.136355	-0.48605	0.96767	0.581646	0.628004	0	0	0.185026	-0.286233	0.791676	0.474094	0.728675	0	0
0.06	0.571197	1.41981	-2.08099	0.328595	1.55285	1.04096	-0.249887	-0.2195	-0.119582	0.864135	-0.598404	0	0	0.0926033	0.0311677	-0.0472176	0.328431	-0.201961	0	0	-0.482309	-0.0690507	0.209014	0.134227	-0.488661	0.964081	0.582928	0.63225	0	0	0.185715	-0.284135	0.795792	0.472823	0.725076	0	0
0.07	0.537347	1.41423	-2.04584	0.332457	1.54202	1.0438	-0.241942	-0.217702	-0.0999668	0.88607	-0.641063	0	0	0.0700536	0.0328005	-0.0597731	0.323176	-0.20268	0	0	-0.489574	-0.0649873	0.208546	0.1326	-0.492408	0.962655	0.585473	0.636255	0	0	0.186202	-0.281637	0.799067	0.471448	0.720857	0	0
0.08	0.508104	1.40976	-2.01529	0.336298	1.53141	1.04634	-0.229204	-0.216889	-0.0838921	0.913512	-0.68102	0	0	0.0470261	0.0355225	-0.0702918	0.31395	-0.202859	0	0	-0.494961	-0.0604299	0.2083	0.130711	-0.496926	0.961446	0.589188	0.638309	0	0	0.186543	-0.279516	0.802961	0.470978	0.716913	0	0
0.09	0.479613	1.40741	-1.985	0.340069	1.5211	1.04856	-0.212375	-0.213475	-0.0675499	0.9443	-0.698132	0	0	0.0259749	0.0376724	-0.0770754	0.303933	-0.201765	0	0	-0.498086	-0.0545355	0.207678	0.129524	-0.501135	0.961215	0.592314	0.638915	0	0	0.186466	-0.278156	0.806748	0.471809	0.716371	0	0
0.1	0.448321	1.40604	-1.95223	0.343619	1.51105	1.0506	-0.193041	-0.207531	-0.0495459	0.976799	-0.698132	0	0	0.00638039	0.0381549	-0.0815296	0.294826	-0.199829	0	0	-0.500635	-0.0477455	0.207757	0.128538	-0.506174	0.961273	0.596985	0.638609	0	0	0.186795	-0.276663	0.810525	0.47269	0.715505	0	0
0.11	0.418013	1.40567	-1.91963	0.347071	1.50109	1.05252	-0.172483	-0.199736	-0.0323375	1.00706	-0.698132	0	0	-0.0108137	0.037256	-0.0829954	0.287259	-0.198439	0	0	-0.502305	-0.0407472	0.207347	0.128023	-0.509576	0.961269	0.59968	0.638072	0	0	0.187061	-0.275043	0.812513	0.473068	0.714502	0	0
0.12	0.38979	1.40558	-1.8893	0.350303	1.4913	1.05438	-0.150393	-0.190421	-0.0145719	1.03727	-0.698132	0	0	-0.0272367	0.0352801	-0.0840057	0.277786	-0.198201	0	0	-0.503836	-0.0340556	0.206894	0.128035	-0.51294	0.96161	0.602791	0.63734	0	0	0.18762	-0.273363	0.814101	0.473106	0.71304	0	0
0.13	0.361403	1.40547	-1.86024	0.352996	1.48189	1.05631	-0.126922	-0.178839	0.00583276	1.06718	-0.698132	0	0	-0.0436525	0.0319098	-0.0857144	0.265837	-0.201013	0	0	-0.506504	-0.0280368	0.207387	0.129281	-0.516953	0.962389	0.607376	0.635835	0	0	0.189402	-0.27258	0.816577	0.474854	0.710667	0	0
0.14	0.334401	1.40477	-1.83142	0.355659	1.47262	1.05834	-0.105209	-0.16625	0.0243419	1.09277	-0.698132	0	0	-0.0596811	0.0282453	-0.0872625	0.255534	-0.204948	0	0	-0.509983	-0.0220626	0.206404	0.131453	-0.51971	0.963288	0.610246	0.634748	0	0	0.192114	-0.272359	0.818966	0.477475	0.708176	0	0
0.15	0.311216	1.40308	-1.80624	0.358281	1.46328	1.06035	-0.0846822	-0.154925	0.0395904	1.11651	-0.694321	0	0	-0.0764705	0.0251818	-0.0918065	0.246752	-0.20817	0	0	-0.513759	-0.0172307	0.205335	0.133219	-0.521611	0.963828	0.612195	0.633773	0	0	0.194065	-0.272209	0.820117	0.479329	0.705928	0	0
0.16	0.294347	1.40231	-1.78865	0.360753	1.45377	1.06213	-0.0632037	-0.144768	0.0542996	1.13874	-0.662519	0	0	-0.0930949	0.0232707	-0.0996402	0.237769	-0.210477	0	0	-0.515978	-0.0136912	0.204675	0.134912	-0.52256	0.964322	0.612894	0.633305	0	0	0.195103	-0.271296	0.820109	0.478889	0.70402	0	0
0.17	0.281549	1.40331	-1.77689	0.363052	1.44409	1.0636	-0.0400536	-0.135075	0.069247	1.15694	-0.625313	0	0	-0.1091	0.0222165	-0.110117	0.227232	-0.212478	0	0	-0.51595	-0.0112871	0.205288	0.136423	-0.522768	0.965061	0.612257	0.633281	0	0	0.195589	-0.269641	0.819079	0.47709	0.703529	0	0
0.18	0.264497	1.40438	-1.75823	0.365623	1.43473	1.06506	-0.0171962	-0.124537	0.0808491	1.17031	-0.596589	0	0	-0.124296	0.0206761	-0.115599	0.217889	-0.213566	0	0	-0.516331	-0.00665429	0.203553	0.138645	-0.523807	0.965965	0.612826	0.633326	0	0	0.197151	-0.267366	0.818954	0.474362	0.703975	0	0
0.19	0.243527	1.40521	-1.73395	0.368305	1.42557	1.06643	0.00586147	-0.113028	0.0911047	1.18256	-0.562762	0	0	-0.139462	0.0184421	-0.118379	0.207686	-0.214857	0	0	-0.516878	-0.000563051	0.200746	0.140813	-0.525742	0.966906	0.614747	0.633266	0	0	0.199029	-0.265533	0.819624	0.472519	0.705267	0	0
0.2	0.22092	1.40606	-1.70701	0.371002	1.41656	1.06767	0.0290592	-0.101358	0.0995641	1.19352	-0.51918	0	0	-0.154174	0.0157747	-0.118962	0.196251	-0.217206	0	0	-0.517621	0.00628766	0.197134	0.143087	-0.528216	0.967681	0.617697	0.632849	0	0	0.200637	-0.26403	0.81857	0.471062	0.704708	0	0
0.21	0.199704	1.40745	-1.68168	0.373608	1.40769	1.06875	0.0516633	-0.0908406	0.105737	1.19889	-0.479602	0	0	-0.167404	0.013198	-0.118773	0.185488	-0.219874	0	0	-0.51826	0.0126075	0.193524	0.14604	-0.530211	0.968817	0.619823	0.632638	0	0	0.202275	-0.262381	0.81616	0.469526	0.702125	0	0
0.22	0.177682	1.40889	-1.65643	0.376018	1.39895	1.06973	0.0734041	-0.0808861	0.110891	1.19913	-0.444369	0	0	-0.179986	0.0100961	-0.119295	0.176606	-0.221537	0	0	-0.519295	0.0185321	0.190616	0.149711	-0.532027	0.970684	0.621226	0.63249	0	0	0.204296	-0.260672	0.814962	0.468143	0.700883	0	0
0.23	0.158327	1.41059	-1.63388	0.378399	1.39036	1.07048	0.095636	-0.0725022	0.114511	1.19627	-0.416568	0	0	-0.190865	0.00711174	-0.121771	0.170029	-0.222433	0	0	-0.520157	0.0239468	0.187746	0.153503	-0.533965	0.97259	0.622482	0.631905	0	0	0.206782	-0.258875	0.814989	0.466531	0.701312	0	0
0.24	0.140428	1.4132	-1.61248	0.380746	1.38196	1.07094	0.119132	-0.0651098	0.11709	1.19059	-0.394747	0	0	-0.198992	0.00396824	-0.125949	0.165965	-0.222737	0	0	-0.520485	0.0292769	0.184635	0.157662	-0.536117	0.974678	0.623766	0.631695	0	0	0.209753	-0.257027	0.815855	0.464887	0.702253	0	0
0.25	0.1238	1.41623	-1.59325	0.382921	1.37355	1.0712	0.14283	-0.0586331	0.119413	1.18191	-0.374118	0	0	-0.206102	0.00131187	-0.129417	0.163376	-0.222144	0	0	-0.520258	0.0339791	0.182232	0.161897	-0.53825	0.977016	0.624923	0.631623	0	0	0.2126	-0.254787	0.815503	0.462668	0.70236	0	0
0.26	0.107638	1.41954	-1.57559	0.38489	1.36517	1.07129	0.166541	-0.0527583	0.121853	1.17021	-0.356721	0	0	-0.212717	-0.000914561	-0.131618	0.161808	-0.22022	0	0	-0.519602	0.0380623	0.180657	0.16619	-0.540453	0.979502	0.626037	0.631533	0	0	0.215155	-0.252633	0.814711	0.460865	0.702351	0	0
0.27	0.0926995	1.42281	-1.55957	0.38669	1.35681	1.07119	0.189727	-0.0473741	0.124598	1.15599	-0.34213	0	0	-0.219176	-0.00264564	-0.132845	0.160711	-0.217256	0	0	-0.518773	0.0415098	0.179682	0.170257	-0.542701	0.982007	0.627331	0.631399	0	0	0.217383	-0.251097	0.813503	0.460309	0.701984	0	0
0.28	0.0788685	1.42619	-1.54469	0.388329	1.34849	1.07093	0.212147	-0.0424053	0.127437	1.13931	-0.328472	0	0	-0.225173	-0.00413742	-0.133224	0.160125	-0.213554	0	0	-0.517697	0.0445744	0.178844	0.174137	-0.544891	0.984116	0.628725	0.630853	0	0	0.219482	-0.249798	0.812208	0.460233	0.701421	0	0
0.29	0.0661407	1.43006	-1.53109	0.389808	1.34019	1.07049	0.234173	-0.0378008	0.130761	1.12063	-0.311924	0	0	-0.230123	-0.00546891	-0.133455	0.16042	-0.208261	0	0	-0.516246	0.0472045	0.177984	0.178175	-0.547107	0.986535	0.630384	0.629684	0	0	0.22134	-0.248388	0.809995	0.459993	0.70071	0	0
0.3	0.0567621	1.43389	-1.52103	0.391196	1.33189	1.06992	0.255218	-0.0340963	0.134448	1.10018	-0.2958	0	0	-0.234833	-0.00623338	-0.133786	0.161168	-0.203103	0	0	-0.514768	0.049095	0.177299	0.181984	-0.549231	0.988845	0.632089	0.628547	0	0	0.223156	-0.247292	0.808578	0.460133	0.700543	0	0
0.31	0.0500525	1.43703	-1.51395	0.392464	1.32361	1.06928	0.274459	-0.0308657	0.138962	1.07775	-0.281909	0	0	-0.240149	-0.00662484	-0.134324	0.162153	-0.198884	0	0	-0.513939	0.0503009	0.176953	0.185661	-0.551321	0.990942	0.633777	0.627973	0	0	0.225357	-0.246233	0.808538	0.460146	0.701003	0	0
0.32	0.0434267	1.44022	-1.50756	0.393571	1.31532	1.06852	0.292502	-0.02743	0.144999	1.05291	-0.266713	0	0	-0.245224	-0.00709406	-0.135375	0.163967	-0.193417	0	0	-0.51316	0.0511455	0.177088	0.189338	-0.553603	0.992952	0.635721	0.626955	0	0	0.227473	-0.245157	0.808231	0.460057	0.701826	0	0
0.33	0.0392127	1.44369	-1.50266	0.39484	1.30685	1.06766	0.30903	-0.0254506	0.149315	1.02516	-0.254229	0	0	-0.250098	-0.00735593	-0.13605	0.165759	-0.188583	0	0	-0.5119	0.0519497	0.176529	0.192341	-0.555514	0.994216	0.637131	0.626082	0	0	0.229374	-0.243741	0.807488	0.459306	0.702013	0	0
0.34	0.0350875	1.44705	-1.4985	0.395968	1.29845	1.06675	0.324326	-0.02335	0.154498	0.994646	-0.242116	0	0	-0.254781	-0.0075601	-0.137459	0.1682	-0.183098	0	0	-0.510685	0.0524749	0.176383	0.195556	-0.55753	0.995509	0.638686	0.625431	0	0	0.231333	-0.242108	0.806647	0.458597	0.702442	0	0
0.35	0.0289201	1.45108	-1.49178	0.3971	1.28996	1.06575	0.338037	-0.0213631	0.159225	0.959556	-0.228615	0	0	-0.258183	-0.00826024	-0.138905	0.172047	-0.175051	0	0	-0.50888	0.0531957	0.176242	0.198365	-0.559641	0.996641	0.640505	0.625251	0	0	0.232753	-0.240333	0.803332	0.458508	0.702042	0	0
0.36	0.0238954	1.45546	-1.48557	0.398249	1.28129	1.0646	0.350985	-0.0203616	0.162096	0.923526	-0.217748	0	0	-0.261019	-0.00914193	-0.140986	0.176206	-0.168187	0	0	-0.506242	0.0539446	0.175284	0.200682	-0.561555	0.997143	0.642439	0.625171	0	0	0.233595	-0.239064	0.800147	0.458631	0.702055	0	0
0.37	0.0198393	1.46031	-1.48007	0.399433	1.27246	1.06329	0.362952	-0.0201745	0.163912	0.885494	-0.207755	0	0	-0.263237	-0.0101426	-0.143931	0.180862	-0.162101	0	0	-0.502668	0.054673	0.173968	0.202283	-0.563294	0.996848	0.644263	0.624851	0	0	0.23397	-0.237838	0.797558	0.458611	0.702746	0	0
